<?xml version="1.0" encoding="UTF-8" standalone="no"?>
<!-- Created with Inkscape (http://www.inkscape.org/) -->

<svg
   width="66.888824mm"
   height="30.10556mm"
   viewBox="0 0 66.888824 30.10556"
   version="1.1"
   id="svg1"
   xmlns:xlink="http://www.w3.org/1999/xlink"
   xmlns="http://www.w3.org/2000/svg"
   xmlns:svg="http://www.w3.org/2000/svg">
  <defs
     id="defs1">
    <color-profile
       name="Generic-RGB-Profile"
       xlink:href="file:///System/Library/ColorSync/Profiles/Generic%20RGB%20Profile.icc"
       id="color-profile2" />
  </defs>
  <g
     id="layer1"
     style="display:none"
     transform="translate(-15.045593,-17.748186)">
    <text
       xml:space="preserve"
       style="font-size:3.175px;font-family:'BBH Sans Hegarty';-inkscape-font-specification:'BBH Sans Hegarty';text-align:start;writing-mode:lr-tb;direction:ltr;text-anchor:start;fill:#ffffff;stroke-width:0.264583"
       x="24.300634"
       y="34.651493"
       id="text5-2"><tspan
         id="tspan5-6"
         style="fill:#ffffff;stroke-width:0.264583"
         x="24.300634"
         y="34.651493">A</tspan></text>
    <text
       xml:space="preserve"
       style="font-size:3.175px;font-family:'BBH Sans Hegarty';-inkscape-font-specification:'BBH Sans Hegarty';text-align:start;writing-mode:lr-tb;direction:ltr;text-anchor:start;fill:#ffffff;stroke-width:0.264583"
       x="24.393595"
       y="36.286518"
       id="text4-1"><tspan
         id="tspan4-8"
         style="fill:#ffffff;stroke-width:0.264583"
         x="24.393595"
         y="36.286518">I</tspan></text>
  </g>
  <g
     id="layer2"
     transform="translate(-15.045593,-17.748186)">
    <g
       id="g10">
      <text
         xml:space="preserve"
         style="font-size:41.0565px;font-family:'BBH Sans Hegarty';-inkscape-font-specification:'BBH Sans Hegarty';text-align:start;writing-mode:lr-tb;direction:ltr;text-anchor:start;fill:#000000;stroke-width:3.42137"
         x="44.737747"
         y="45.702591"
         id="text4"
         transform="scale(0.95504736,1.0470685)"><tspan
           id="tspan4"
           style="fill:#000000;stroke-width:3.42137"
           x="44.737747"
           y="45.702591">I</tspan></text>
      <path
         id="text3"
         style="font-size:41.0565px;font-family:'BBH Sans Hegarty';-inkscape-font-specification:'BBH Sans Hegarty';text-align:start;writing-mode:lr-tb;direction:ltr;text-anchor:start;fill:#000000;stroke-width:3.42137"
         d="m 22.410768,16.950932 -6.633193,4.635769 -0.02381,-0.01579 v 24.11952 H 27.49591 v -8.088042 h 4.762653 c 1.91597,0 2.873716,0.957881 2.873716,2.873851 v 5.214191 h 11.742684 v -6.404596 c 0,-1.450663 -0.232696,-2.627996 -0.698003,-3.531239 -0.465307,-0.903243 -1.245364,-1.614487 -2.340204,-2.134536 -1.067469,-0.520049 -2.531862,-0.917189 -4.39309,-1.190899 V 31.60792 c 1.861228,-0.27371 3.325621,-0.765996 4.39309,-1.477642 1.09484,-0.711646 1.874897,-1.560294 2.340204,-2.54565 0.465307,-1.012727 0.698003,-2.080334 0.698003,-3.202545 0,-2.244422 -0.766846,-4.037359 -2.299622,-5.378538 -1.505405,-1.36855 -3.763066,-2.05261 -6.773876,-2.05261 z m 5.085142,8.744936 h 6.035291 c 0.520049,0 0.930976,0.164589 1.232057,0.493041 0.301081,0.328452 0.451267,0.766369 0.451267,1.313789 0,0.520049 -0.150186,0.957965 -0.451267,1.313788 -0.301081,0.328452 -0.712008,0.492548 -1.232057,0.492548 H 27.49591 Z"
         transform="scale(0.95504736,1.0470685)" />
      <text
         xml:space="preserve"
         style="font-size:41.0565px;font-family:'BBH Sans Hegarty';-inkscape-font-specification:'BBH Sans Hegarty';text-align:start;writing-mode:lr-tb;direction:ltr;text-anchor:start;fill:#000000;stroke-width:3.42137"
         x="50.030724"
         y="45.689861"
         id="text5"
         transform="scale(0.95504736,1.0470685)"><tspan
           id="tspan5"
           style="fill:#000000;stroke-width:3.42137"
           x="50.030724"
           y="45.689861">A</tspan></text>
    </g>
  </g>
</svg>
