<svg id="visual" viewBox="0 0 900 600" width="900" height="600" xmlns="http://www.w3.org/2000/svg" xmlns:xlink="http://www.w3.org/1999/xlink" version="1.1"><rect x="0" y="0" width="900" height="600" fill="#002233"></rect><path d="M0 496L21.5 478C43 460 86 424 128.8 419.7C171.7 415.3 214.3 442.7 257.2 460C300 477.3 343 484.7 385.8 482.3C428.7 480 471.3 468 514.2 454.5C557 441 600 426 642.8 436.8C685.7 447.7 728.3 484.3 771.2 478.3C814 472.3 857 423.7 878.5 399.3L900 375L900 601L878.5 601C857 601 814 601 771.2 601C728.3 601 685.7 601 642.8 601C600 601 557 601 514.2 601C471.3 601 428.7 601 385.8 601C343 601 300 601 257.2 601C214.3 601 171.7 601 128.8 601C86 601 43 601 21.5 601L0 601Z" fill="#0066FF" stroke-linecap="round" stroke-linejoin="miter"></path></svg>